<?xml version="1.0" encoding="UTF-8"?>
<svg xmlns="http://www.w3.org/2000/svg" version="1.1" width="300" height="300" viewBox="0 0 300 300"><rect x="0" y="0" width="300" height="300" fill="#ffffff"/><g transform="scale(5.455)"><g transform="translate(1,1)"><path fill-rule="evenodd" d="M8 0L8 1L9 1L9 2L8 2L8 5L9 5L9 4L13 4L13 5L12 5L12 8L8 8L8 9L7 9L7 8L6 8L6 9L7 9L7 10L6 10L6 11L8 11L8 12L6 12L6 13L7 13L7 14L6 14L6 15L5 15L5 13L2 13L2 12L0 12L0 14L1 14L1 13L2 13L2 15L1 15L1 16L2 16L2 17L1 17L1 18L0 18L0 20L1 20L1 19L2 19L2 18L3 18L3 19L7 19L7 20L6 20L6 21L4 21L4 20L3 20L3 21L4 21L4 23L5 23L5 24L4 24L4 25L3 25L3 23L2 23L2 22L1 22L1 21L0 21L0 22L1 22L1 25L3 25L3 27L2 27L2 29L1 29L1 28L0 28L0 30L2 30L2 31L3 31L3 32L0 32L0 33L1 33L1 35L2 35L2 33L3 33L3 35L4 35L4 36L3 36L3 37L2 37L2 36L1 36L1 37L0 37L0 38L1 38L1 37L2 37L2 38L3 38L3 40L0 40L0 43L1 43L1 44L3 44L3 45L4 45L4 44L3 44L3 43L9 43L9 42L8 42L8 40L10 40L10 41L11 41L11 37L10 37L10 39L8 39L8 38L9 38L9 36L11 36L11 35L12 35L12 39L13 39L13 37L14 37L14 36L15 36L15 38L14 38L14 40L12 40L12 42L10 42L10 44L9 44L9 45L8 45L8 44L6 44L6 45L8 45L8 46L9 46L9 45L10 45L10 44L11 44L11 45L12 45L12 43L13 43L13 44L14 44L14 46L12 46L12 48L11 48L11 47L10 47L10 48L9 48L9 49L8 49L8 53L10 53L10 52L11 52L11 53L13 53L13 52L14 52L14 50L13 50L13 49L15 49L15 47L16 47L16 48L17 48L17 50L15 50L15 52L16 52L16 53L17 53L17 52L16 52L16 51L19 51L19 52L21 52L21 53L22 53L22 52L21 52L21 51L23 51L23 53L24 53L24 51L23 51L23 50L22 50L22 48L24 48L24 49L25 49L25 51L27 51L27 53L28 53L28 52L29 52L29 53L30 53L30 52L31 52L31 50L33 50L33 51L32 51L32 53L33 53L33 51L34 51L34 52L35 52L35 53L36 53L36 52L35 52L35 51L34 51L34 49L32 49L32 48L33 48L33 46L34 46L34 48L35 48L35 47L36 47L36 49L35 49L35 50L36 50L36 51L37 51L37 48L38 48L38 52L39 52L39 49L40 49L40 52L41 52L41 53L42 53L42 52L43 52L43 53L44 53L44 52L45 52L45 51L44 51L44 52L43 52L43 50L44 50L44 49L45 49L45 50L46 50L46 51L47 51L47 52L46 52L46 53L48 53L48 52L50 52L50 53L52 53L52 50L51 50L51 52L50 52L50 50L49 50L49 45L50 45L50 44L51 44L51 45L52 45L52 46L51 46L51 48L50 48L50 49L53 49L53 47L52 47L52 46L53 46L53 43L51 43L51 42L52 42L52 41L53 41L53 36L52 36L52 35L51 35L51 36L50 36L50 35L49 35L49 32L50 32L50 34L53 34L53 32L52 32L52 31L51 31L51 30L52 30L52 29L51 29L51 30L50 30L50 28L49 28L49 27L51 27L51 28L53 28L53 25L51 25L51 24L49 24L49 23L52 23L52 24L53 24L53 23L52 23L52 22L53 22L53 19L52 19L52 21L51 21L51 17L50 17L50 20L49 20L49 19L48 19L48 18L49 18L49 17L47 17L47 15L49 15L49 16L50 16L50 15L53 15L53 13L52 13L52 14L51 14L51 12L53 12L53 11L52 11L52 10L53 10L53 8L52 8L52 9L51 9L51 8L48 8L48 9L49 9L49 10L48 10L48 13L47 13L47 11L46 11L46 10L45 10L45 11L46 11L46 12L45 12L45 13L44 13L44 12L42 12L42 11L43 11L43 10L44 10L44 8L45 8L45 9L46 9L46 8L45 8L45 6L44 6L44 7L43 7L43 3L44 3L44 4L45 4L45 3L44 3L44 1L43 1L43 0L41 0L41 1L40 1L40 0L39 0L39 1L38 1L38 0L35 0L35 1L34 1L34 3L36 3L36 4L37 4L37 5L35 5L35 6L34 6L34 5L33 5L33 4L31 4L31 5L30 5L30 4L27 4L27 3L29 3L29 2L28 2L28 1L30 1L30 2L31 2L31 3L33 3L33 2L32 2L32 1L31 1L31 0L27 0L27 1L26 1L26 0L24 0L24 1L26 1L26 2L27 2L27 3L26 3L26 4L24 4L24 7L23 7L23 6L22 6L22 5L23 5L23 4L19 4L19 3L17 3L17 2L18 2L18 1L22 1L22 3L25 3L25 2L23 2L23 1L22 1L22 0L18 0L18 1L17 1L17 2L16 2L16 0L15 0L15 2L14 2L14 0L13 0L13 2L14 2L14 3L12 3L12 2L11 2L11 0ZM36 1L36 2L37 2L37 1ZM15 2L15 3L14 3L14 5L13 5L13 11L14 11L14 10L15 10L15 11L16 11L16 12L17 12L17 11L19 11L19 10L21 10L21 11L20 11L20 12L21 12L21 15L17 15L17 16L16 16L16 14L17 14L17 13L15 13L15 12L14 12L14 13L12 13L12 12L11 12L11 11L12 11L12 9L8 9L8 10L11 10L11 11L9 11L9 12L10 12L10 13L8 13L8 14L7 14L7 15L6 15L6 16L5 16L5 15L4 15L4 14L3 14L3 15L2 15L2 16L5 16L5 17L6 17L6 18L8 18L8 17L9 17L9 19L8 19L8 21L9 21L9 23L8 23L8 22L7 22L7 21L6 21L6 22L7 22L7 23L6 23L6 24L10 24L10 23L12 23L12 24L11 24L11 25L10 25L10 26L11 26L11 28L10 28L10 27L9 27L9 29L10 29L10 30L8 30L8 31L6 31L6 30L7 30L7 29L5 29L5 30L4 30L4 27L3 27L3 31L5 31L5 32L3 32L3 33L5 33L5 32L7 32L7 33L6 33L6 34L7 34L7 33L8 33L8 32L9 32L9 33L10 33L10 32L13 32L13 31L17 31L17 30L18 30L18 31L19 31L19 30L18 30L18 29L19 29L19 28L20 28L20 30L22 30L22 32L20 32L20 33L21 33L21 34L19 34L19 35L18 35L18 36L19 36L19 37L20 37L20 35L21 35L21 34L23 34L23 33L22 33L22 32L24 32L24 36L21 36L21 37L23 37L23 38L22 38L22 39L24 39L24 40L23 40L23 41L24 41L24 42L22 42L22 41L20 41L20 43L19 43L19 40L18 40L18 44L15 44L15 43L14 43L14 42L15 42L15 41L16 41L16 42L17 42L17 40L16 40L16 39L19 39L19 38L17 38L17 37L16 37L16 39L15 39L15 40L14 40L14 42L13 42L13 43L14 43L14 44L15 44L15 46L14 46L14 47L15 47L15 46L17 46L17 48L18 48L18 50L19 50L19 49L20 49L20 50L21 50L21 47L24 47L24 45L23 45L23 46L22 46L22 45L20 45L20 46L21 46L21 47L20 47L20 48L18 48L18 46L19 46L19 44L20 44L20 43L21 43L21 42L22 42L22 44L26 44L26 42L25 42L25 41L26 41L26 40L27 40L27 39L28 39L28 41L30 41L30 42L29 42L29 43L27 43L27 44L29 44L29 45L31 45L31 47L32 47L32 45L34 45L34 46L36 46L36 47L37 47L37 46L38 46L38 48L40 48L40 49L42 49L42 50L41 50L41 52L42 52L42 50L43 50L43 49L44 49L44 46L43 46L43 47L42 47L42 48L41 48L41 46L42 46L42 45L41 45L41 46L39 46L39 45L40 45L40 44L39 44L39 45L37 45L37 44L38 44L38 42L39 42L39 43L40 43L40 41L41 41L41 42L42 42L42 44L43 44L43 43L45 43L45 44L46 44L46 43L48 43L48 44L49 44L49 43L50 43L50 42L51 42L51 41L52 41L52 40L51 40L51 38L52 38L52 37L51 37L51 38L50 38L50 42L49 42L49 40L48 40L48 42L43 42L43 41L44 41L44 40L45 40L45 38L44 38L44 40L42 40L42 39L43 39L43 37L46 37L46 36L47 36L47 39L49 39L49 37L50 37L50 36L49 36L49 35L48 35L48 32L47 32L47 34L46 34L46 35L45 35L45 32L46 32L46 31L47 31L47 29L46 29L46 30L45 30L45 29L44 29L44 27L41 27L41 28L40 28L40 27L38 27L38 28L37 28L37 27L36 27L36 26L37 26L37 25L36 25L36 26L35 26L35 24L34 24L34 23L33 23L33 22L32 22L32 21L33 21L33 19L34 19L34 17L35 17L35 18L36 18L36 19L35 19L35 21L34 21L34 22L36 22L36 24L37 24L37 21L38 21L38 25L39 25L39 26L40 26L40 25L42 25L42 26L43 26L43 25L44 25L44 24L43 24L43 23L45 23L45 24L46 24L46 23L45 23L45 22L48 22L48 23L47 23L47 24L48 24L48 23L49 23L49 22L50 22L50 21L49 21L49 20L47 20L47 19L46 19L46 20L47 20L47 21L43 21L43 20L44 20L44 18L45 18L45 17L43 17L43 16L46 16L46 15L47 15L47 13L46 13L46 14L45 14L45 15L43 15L43 13L42 13L42 12L41 12L41 11L39 11L39 9L38 9L38 8L40 8L40 6L41 6L41 9L40 9L40 10L42 10L42 9L43 9L43 7L42 7L42 5L41 5L41 3L43 3L43 2L38 2L38 3L37 3L37 4L38 4L38 3L40 3L40 4L39 4L39 5L40 5L40 6L39 6L39 7L38 7L38 6L37 6L37 7L38 7L38 8L36 8L36 6L35 6L35 7L34 7L34 6L33 6L33 5L31 5L31 7L30 7L30 6L29 6L29 8L30 8L30 9L29 9L29 10L28 10L28 9L27 9L27 10L28 10L28 12L27 12L27 11L24 11L24 10L25 10L25 9L24 9L24 10L23 10L23 8L22 8L22 6L21 6L21 5L20 5L20 6L19 6L19 5L17 5L17 4L16 4L16 5L15 5L15 3L16 3L16 2ZM20 2L20 3L21 3L21 2ZM14 5L14 7L15 7L15 5ZM25 5L25 8L28 8L28 5ZM8 6L8 7L9 7L9 6ZM10 6L10 7L11 7L11 6ZM16 6L16 7L17 7L17 6ZM18 6L18 7L19 7L19 6ZM20 6L20 7L21 7L21 6ZM26 6L26 7L27 7L27 6ZM32 6L32 7L31 7L31 8L33 8L33 9L32 9L32 11L31 11L31 9L30 9L30 12L31 12L31 14L30 14L30 13L29 13L29 12L28 12L28 14L27 14L27 12L26 12L26 13L25 13L25 14L24 14L24 13L22 13L22 15L23 15L23 16L26 16L26 15L25 15L25 14L27 14L27 16L29 16L29 17L30 17L30 16L31 16L31 18L32 18L32 17L34 17L34 15L33 15L33 16L31 16L31 14L33 14L33 13L32 13L32 12L33 12L33 9L35 9L35 10L34 10L34 12L35 12L35 10L38 10L38 9L35 9L35 8L34 8L34 7L33 7L33 6ZM0 8L0 9L3 9L3 12L5 12L5 11L4 11L4 10L5 10L5 9L4 9L4 8ZM14 8L14 9L15 9L15 8ZM16 8L16 11L17 11L17 10L19 10L19 9L17 9L17 8ZM21 8L21 10L22 10L22 8ZM0 10L0 11L2 11L2 10ZM50 10L50 11L49 11L49 13L48 13L48 14L49 14L49 15L50 15L50 14L49 14L49 13L50 13L50 12L51 12L51 10ZM22 11L22 12L24 12L24 11ZM36 11L36 13L37 13L37 16L39 16L39 18L38 18L38 20L39 20L39 18L41 18L41 19L40 19L40 21L41 21L41 23L42 23L42 22L43 22L43 21L42 21L42 20L41 20L41 19L42 19L42 18L41 18L41 17L40 17L40 16L42 16L42 14L41 14L41 13L40 13L40 12L39 12L39 13L37 13L37 11ZM11 13L11 15L12 15L12 16L14 16L14 17L16 17L16 18L17 18L17 19L18 19L18 18L17 18L17 17L16 17L16 16L14 16L14 14L13 14L13 15L12 15L12 13ZM19 13L19 14L20 14L20 13ZM39 13L39 15L40 15L40 13ZM8 14L8 15L7 15L7 16L6 16L6 17L7 17L7 16L9 16L9 14ZM23 14L23 15L24 15L24 14ZM29 14L29 16L30 16L30 14ZM35 14L35 16L36 16L36 14ZM18 16L18 17L19 17L19 16ZM20 16L20 19L19 19L19 20L20 20L20 21L21 21L21 22L20 22L20 23L19 23L19 24L18 24L18 22L16 22L16 21L14 21L14 22L13 22L13 20L14 20L14 18L13 18L13 17L11 17L11 18L10 18L10 19L11 19L11 20L12 20L12 22L13 22L13 25L12 25L12 27L13 27L13 30L15 30L15 28L14 28L14 26L17 26L17 25L16 25L16 24L18 24L18 25L20 25L20 26L21 26L21 25L20 25L20 23L23 23L23 24L22 24L22 25L23 25L23 26L22 26L22 27L23 27L23 30L26 30L26 31L24 31L24 32L28 32L28 33L26 33L26 35L25 35L25 36L24 36L24 38L25 38L25 37L26 37L26 39L27 39L27 37L30 37L30 36L31 36L31 37L32 37L32 36L33 36L33 35L32 35L32 34L34 34L34 36L36 36L36 37L35 37L35 38L37 38L37 39L35 39L35 40L37 40L37 41L36 41L36 44L37 44L37 42L38 42L38 41L39 41L39 40L41 40L41 41L42 41L42 40L41 40L41 38L40 38L40 39L39 39L39 37L40 37L40 35L39 35L39 37L38 37L38 36L37 36L37 35L36 35L36 34L38 34L38 33L36 33L36 32L38 32L38 31L40 31L40 32L39 32L39 34L41 34L41 32L42 32L42 31L43 31L43 33L42 33L42 35L43 35L43 34L44 34L44 32L45 32L45 30L42 30L42 28L41 28L41 31L40 31L40 30L38 30L38 31L37 31L37 30L36 30L36 31L35 31L35 29L36 29L36 27L35 27L35 29L34 29L34 31L33 31L33 33L32 33L32 34L31 34L31 33L30 33L30 32L28 32L28 29L29 29L29 30L30 30L30 27L31 27L31 26L32 26L32 25L31 25L31 24L33 24L33 23L32 23L32 22L31 22L31 20L32 20L32 19L31 19L31 20L30 20L30 18L29 18L29 20L30 20L30 21L27 21L27 19L26 19L26 17L24 17L24 18L25 18L25 22L23 22L23 21L24 21L24 19L23 19L23 17L21 17L21 16ZM52 16L52 17L53 17L53 16ZM3 17L3 18L4 18L4 17ZM11 18L11 19L12 19L12 18ZM20 19L20 20L23 20L23 19ZM36 19L36 20L37 20L37 19ZM9 20L9 21L10 21L10 22L11 22L11 21L10 21L10 20ZM17 20L17 21L18 21L18 20ZM14 22L14 23L15 23L15 24L16 24L16 22ZM25 22L25 23L24 23L24 24L25 24L25 23L26 23L26 24L28 24L28 23L29 23L29 27L30 27L30 26L31 26L31 25L30 25L30 24L31 24L31 22L30 22L30 23L29 23L29 22L27 22L27 23L26 23L26 22ZM39 22L39 24L40 24L40 22ZM42 24L42 25L43 25L43 24ZM5 25L5 28L8 28L8 25ZM13 25L13 26L14 26L14 25ZM25 25L25 28L28 28L28 25ZM33 25L33 26L34 26L34 25ZM45 25L45 28L48 28L48 25ZM49 25L49 26L50 26L50 25ZM6 26L6 27L7 27L7 26ZM26 26L26 27L27 27L27 26ZM46 26L46 27L47 27L47 26ZM16 27L16 30L17 30L17 28L19 28L19 27ZM32 27L32 28L31 28L31 29L33 29L33 28L34 28L34 27ZM21 28L21 29L22 29L22 28ZM38 28L38 29L39 29L39 28ZM11 29L11 31L12 31L12 29ZM48 29L48 30L49 30L49 29ZM31 30L31 31L32 31L32 30ZM14 32L14 35L15 35L15 36L16 36L16 35L17 35L17 34L18 34L18 33L16 33L16 35L15 35L15 32ZM51 32L51 33L52 33L52 32ZM28 33L28 34L27 34L27 35L26 35L26 37L27 37L27 36L28 36L28 34L29 34L29 33ZM34 33L34 34L36 34L36 33ZM4 34L4 35L5 35L5 36L4 36L4 37L3 37L3 38L5 38L5 39L4 39L4 41L3 41L3 42L2 42L2 41L1 41L1 42L2 42L2 43L3 43L3 42L4 42L4 41L6 41L6 42L7 42L7 41L6 41L6 40L7 40L7 39L6 39L6 38L8 38L8 36L9 36L9 34L8 34L8 36L7 36L7 35L5 35L5 34ZM47 35L47 36L48 36L48 35ZM5 36L5 38L6 38L6 37L7 37L7 36ZM41 36L41 37L42 37L42 36ZM37 37L37 38L38 38L38 37ZM29 38L29 39L30 39L30 41L33 41L33 42L35 42L35 41L33 41L33 40L34 40L34 39L32 39L32 40L31 40L31 38ZM38 39L38 40L39 40L39 39ZM46 40L46 41L47 41L47 40ZM24 42L24 43L25 43L25 42ZM31 43L31 44L32 44L32 43ZM25 45L25 48L28 48L28 45ZM45 45L45 48L48 48L48 45ZM26 46L26 47L27 47L27 46ZM29 46L29 47L30 47L30 46ZM46 46L46 47L47 47L47 46ZM12 48L12 49L13 49L13 48ZM29 48L29 49L27 49L27 51L30 51L30 50L31 50L31 48ZM9 49L9 51L10 51L10 49ZM46 49L46 50L48 50L48 51L49 51L49 50L48 50L48 49ZM12 50L12 51L11 51L11 52L13 52L13 50ZM0 0L0 7L7 7L7 0ZM1 1L1 6L6 6L6 1ZM2 2L2 5L5 5L5 2ZM46 0L46 7L53 7L53 0ZM47 1L47 6L52 6L52 1ZM48 2L48 5L51 5L51 2ZM0 46L0 53L7 53L7 46ZM1 47L1 52L6 52L6 47ZM2 48L2 51L5 51L5 48Z" fill="#000000"/></g></g></svg>
